HIERARCHY
ROOT hip
{
	OFFSET 0.000000 0.000000 0.000000 
	CHANNELS 6 Xposition Yposition Zposition Xrotation Zrotation Yrotation
	JOINT abdomen
	{
		OFFSET 0.000000 3.402643 0.000000 
		CHANNELS 3 Xrotation Zrotation Yrotation
		JOINT chest
		{
			OFFSET 0.000000 8.438565 -0.680529 
			CHANNELS 3 Xrotation Zrotation Yrotation
			JOINT neck
			{
				OFFSET 0.000000 10.207942 -0.272212 
				CHANNELS 3 Xrotation Zrotation Yrotation
				JOINT head
				{
					OFFSET 0.000000 3.130431 0.000000 
					CHANNELS 3 Xrotation Zrotation Yrotation
					End Site
					{
						OFFSET 0.000000 3.130435 0.000000 
					}
				}
			}
			JOINT lCollar
			{
				OFFSET 3.470700 6.669187 -0.816635 
				CHANNELS 3 Yrotation Zrotation Xrotation
				JOINT lShldr
				{
					OFFSET 3.198488 0.000000 0.000000 
					CHANNELS 3 Zrotation Yrotation Xrotation
					JOINT lForeArm
					{
						OFFSET 10.139888 0.000000 0.000000 
						CHANNELS 3 Yrotation Zrotation Xrotation
						JOINT lHand
						{
							OFFSET 8.370511 0.000000 0.000000 
							CHANNELS 3 Zrotation Yrotation Xrotation
							End Site
							{
								OFFSET 4.083176 0.000000 0.000000 
							}
						}
					}
				}
			}
			JOINT rCollar
			{
				OFFSET -3.470700 6.669187 -0.816635 
				CHANNELS 3 Yrotation Zrotation Xrotation
				JOINT rShldr
				{
					OFFSET -3.198488 0.000000 0.000000 
					CHANNELS 3 Zrotation Yrotation Xrotation
					JOINT rForeArm
					{
						OFFSET -10.139888 0.000000 0.000000 
						CHANNELS 3 Yrotation Zrotation Xrotation
						JOINT rHand
						{
							OFFSET -8.370511 0.000000 0.000000 
							CHANNELS 3 Zrotation Yrotation Xrotation
							End Site
							{
								OFFSET -4.083176 0.000000 0.000000 
							}
						}
					}
				}
			}
		}
	}
	JOINT lThigh
	{
		OFFSET 5.308129 -1.633274 1.361059 
		CHANNELS 3 Xrotation Zrotation Yrotation
		JOINT lShin
		{
			OFFSET -2.041588 -20.007561 0.000000 
			CHANNELS 3 Xrotation Zrotation Yrotation
			JOINT lFoot
			{
				OFFSET 0.000000 -19.190928 -1.224953 
				CHANNELS 3 Xrotation Yrotation Zrotation
				End Site
				{
					OFFSET 0.000000 -2.449906 4.627600 
				}
			}
		}
	}
	JOINT rThigh
	{
		OFFSET -5.308129 -1.633274 1.361059 
		CHANNELS 3 Xrotation Zrotation Yrotation
		JOINT rShin
		{
			OFFSET 2.041588 -20.007561 0.000000 
			CHANNELS 3 Xrotation Zrotation Yrotation
			JOINT rFoot
			{
				OFFSET 0.000000 -19.190928 -1.224953 
				CHANNELS 3 Xrotation Yrotation Zrotation
				End Site
				{
					OFFSET 0.000000 -2.449906 4.627600 
				}
			}
		}
	}
}
MOTION
Frames: 8
Frame Time: 0.011111
34.411064 52.195255 -136.997391 2.247387 -1.968651 -0.390275 30.862814 -0.450613 2.677547 -25.437574 0.141131 0.682196 -9.443367 -5.218376 -1.857229 -12.646718 5.268002 -6.004426 -10.256527 -0.734681 -0.809317 -69.993332 -23.548594 3.564398 -55.250492 8.710963 10.328413 8.524705 12.647240 -62.474010 6.318032 -3.285348 0.526703 72.365158 23.988949 29.500212 54.639450 -8.621387 10.076625 -8.534408 -12.637552 25.814314 -14.815749 7.897815 -10.863310 35.015087 -5.020933 -5.486955 -29.560434 1.886871 -0.694429 -0.410443 5.516787 18.250053 23.528559 5.651461 4.014272 -35.279034 -20.958548 -10.501822 
34.396339 52.195610 -137.048386 2.335299 -1.980805 -0.559969 30.669844 -0.346246 2.638304 -25.437677 0.247977 0.659739 -9.061843 -5.102609 -1.804794 -13.181720 4.952502 -5.822228 -10.256527 -0.734681 -0.809317 -70.027443 -23.913702 3.647886 -55.451374 8.741703 10.416647 8.524705 12.647240 -61.985729 6.318032 -3.285348 0.526703 72.242020 24.171057 29.218365 54.955841 -8.670007 10.207644 -8.534408 -12.637552 26.839703 -14.938383 7.977379 -10.750141 34.966305 -5.005592 -5.516913 -29.519310 1.942977 -0.689789 -0.616180 5.543896 18.293386 23.579384 5.651663 3.999272 -35.035244 -21.058338 -10.409672 
34.384842 52.181961 -137.079285 2.120306 -2.014704 -0.749167 30.809023 -0.253586 2.645161 -25.525721 0.404890 0.645092 -8.711478 -5.082311 -1.713006 -13.456711 4.753988 -5.596477 -10.256527 -0.734681 -0.809317 -70.127876 -24.151686 3.793086 -55.736591 8.781430 10.528693 8.524705 12.647240 -61.409554 6.318032 -3.285348 0.526703 72.089684 24.221577 29.112257 54.829601 -8.651700 10.152505 -8.534408 -12.637552 26.292828 -14.653261 8.084155 -10.583817 34.926300 -5.015281 -5.496904 -29.489847 1.948527 -0.697946 -0.402925 5.589959 18.352133 23.589415 5.651743 4.000165 -34.890606 -21.046030 -10.312654 
34.365810 52.178371 -137.099396 2.042102 -2.048848 -0.913726 30.746012 -0.039218 2.532557 -25.496746 0.686259 0.588472 -8.464444 -5.419445 -1.532751 -13.505612 4.794408 -5.332900 -10.256527 -0.734681 -0.809317 -70.391289 -24.559727 3.718636 -55.969902 8.817905 10.637602 8.524705 12.647240 -60.979866 6.318032 -3.285348 0.526703 71.733772 24.277063 29.271673 54.745201 -8.640126 10.128335 -8.534408 -12.637552 26.009623 -14.546768 8.191987 -10.454901 34.886112 -5.020988 -5.495121 -29.531668 1.877461 -0.724510 -0.316680 5.636306 18.336166 23.589413 5.651749 4.000166 -34.880543 -20.831535 -10.232286 
34.345337 52.179089 -137.120224 1.954075 -2.017639 -1.007179 30.902689 -0.064523 2.519231 -25.115965 0.760226 0.581564 -9.314949 -5.269264 -1.482730 -13.162762 4.550949 -5.215475 -10.256527 -0.734681 -0.809317 -70.128319 -25.587484 3.992342 -56.181648 8.847535 10.727354 8.524705 12.647240 -60.511120 6.318032 -3.285348 0.526703 71.639481 25.053797 28.909582 54.671917 -8.630363 10.095878 -8.534408 -12.637552 26.019386 -14.386830 8.190561 -10.416871 34.817406 -5.015191 -5.497072 -29.611523 1.830770 -0.733413 -0.256467 5.619486 18.264893 23.619205 5.651886 4.012545 -34.878597 -20.655005 -10.149620 
34.333485 52.182320 -137.138550 1.817164 -1.921191 -1.038296 31.186142 -0.119429 2.427749 -25.379696 0.801685 0.567272 -9.633346 -4.930303 -1.506506 -12.764140 4.060719 -5.107846 -10.256527 -0.734681 -0.809317 -70.022575 -25.797110 4.326645 -56.541187 8.894834 10.883042 8.524705 12.647240 -59.964245 6.318032 -3.285348 0.526703 71.719559 25.230959 28.448124 54.544285 -8.606239 10.042961 -8.534408 -12.637552 25.755718 -14.169847 8.092298 -10.488553 34.746197 -5.040143 -5.469334 -29.607317 1.938314 -0.668334 -0.180251 5.499516 18.015146 23.659035 5.652073 4.025815 -34.824333 -20.439358 -10.046824 
34.295773 52.173344 -137.226196 1.797715 -1.890768 -0.772869 31.616236 -0.008953 2.076056 -26.209669 0.669219 0.463595 -9.716052 -4.472258 -1.530010 -12.299841 3.700552 -4.959102 -10.256527 -0.734681 -0.809317 -69.771240 -25.640482 4.656294 -56.902061 8.943877 11.039771 8.524705 12.647240 -59.358776 6.318032 -3.285348 0.526703 72.100601 25.070158 28.130758 54.513023 -8.602829 10.031619 -8.534408 -12.637552 25.501810 -14.292641 8.133249 -10.491395 34.656055 -5.050478 -5.463677 -29.279303 1.836621 -0.792567 -0.277645 5.528729 17.799034 23.679832 5.650343 4.017451 -34.839008 -20.473625 -10.076462 
34.270271 52.158974 -137.264618 1.700069 -1.950361 -0.781154 31.567724 0.070237 2.069002 -26.004564 0.647309 0.447195 -9.478703 -4.229248 -1.554600 -12.626410 3.530580 -4.911788 -10.256527 -0.734681 -0.809317 -69.494713 -26.217243 4.991541 -57.040493 8.962976 11.095878 8.524705 12.647240 -58.968151 6.318032 -3.285348 0.526703 72.208000 25.388609 27.713762 54.416836 -8.581118 9.980474 -8.534408 -12.637552 25.247906 -14.203535 8.240193 -10.538727 34.537369 -5.059948 -5.426939 -29.179804 1.883013 -0.772784 -0.187861 5.649342 17.845469 23.689487 5.652062 4.018732 -34.811459 -20.578440 -10.105405 
